<svg width="156" height="25" viewBox="0 0 156 25" fill="none" xmlns="http://www.w3.org/2000/svg">
<g clip-path="url(#clip0_532_2376)">
<mask id="mask0_532_2376" style="mask-type:luminance" maskUnits="userSpaceOnUse" x="0" y="0" width="156" height="25">
<path d="M155.833 0H0V25H155.833V0Z" fill="white"/>
</mask>
<g mask="url(#mask0_532_2376)">
<path d="M99.5042 0C99.7667 0 100 0.244648 100 0.519877V2.81346C100 3.08868 99.7667 3.33333 99.5042 3.33333H82.9962C82.7335 3.33333 82.5 3.08868 82.5 2.81346V0.519877C82.5 0.244648 82.7335 0 82.9962 0H99.5042Z" fill="#2F80ED"/>
<path d="M49.9149 20.2118C49.7572 20.0569 49.4704 20.0288 49.2696 20.2118C48.1799 21.0708 46.8607 21.6622 45.2977 21.6622C41.9711 21.6622 39.4905 18.9587 39.4905 15.7763C39.4905 12.5659 41.9567 9.84827 45.2691 9.84827C46.7173 9.84827 48.1799 10.4115 49.2696 11.3549C49.4704 11.5521 49.7428 11.5521 49.9149 11.3549L51.4922 9.74977C51.693 9.5526 51.693 9.24285 51.4636 9.0316C49.6998 7.48271 47.8071 6.66602 45.1831 6.66602C40.0066 6.66602 35.834 10.7636 35.834 15.8608C35.834 20.944 40.0067 24.9993 45.1974 24.9993C47.506 24.9993 49.7428 24.2108 51.5066 22.5352C51.693 22.3521 51.736 22.0283 51.5352 21.8453L49.9149 20.2118Z" fill="#2F80ED"/>
<path d="M75.3255 6.66602H72.8459C72.5472 6.66602 72.3381 6.8979 72.3381 7.15877V14.1008H63.5252V7.15877C63.5252 6.8979 63.316 6.66602 63.0173 6.66602H60.5078C60.239 6.66602 60 6.8979 60 7.15877V24.5066C60 24.7674 60.239 24.9993 60.5078 24.9993H63.0173C63.316 24.9993 63.5252 24.7674 63.5252 24.5066V17.2747H72.3381V24.5066C72.3381 24.7674 72.5472 24.9993 72.8459 24.9993H75.3255C75.5943 24.9993 75.8333 24.7674 75.8333 24.5066V7.15877C75.8333 6.8979 75.5943 6.66602 75.3255 6.66602Z" fill="#2F80ED"/>
<path d="M91.8892 6.95158C91.8167 6.79452 91.7 6.66602 91.4392 6.66602H91.1775C90.945 6.66602 90.8142 6.79452 90.7275 6.95158L82.5528 24.3283C82.3931 24.6709 82.6109 24.9993 83.0029 24.9993H85.2825C85.7033 24.9993 85.9359 24.7423 86.0375 24.4853L91.1917 13.1483H91.2642L96.4625 24.4853C96.6517 24.8423 96.8259 24.9993 97.2175 24.9993H99.4975C99.8892 24.9993 100.107 24.6567 99.9475 24.3283L91.8892 6.95158Z" fill="#2F80ED"/>
<path d="M113.314 6.66602H107.159C106.869 6.66602 106.666 6.8979 106.666 7.15877V24.5066C106.666 24.7674 106.869 24.9993 107.159 24.9993H109.563C109.824 24.9993 110.055 24.7674 110.055 24.5066V18.3472H113.329C116.53 18.3472 119.166 15.695 119.166 12.4486C119.18 9.28918 116.53 6.66602 113.314 6.66602ZM113.097 15.1588H110.055V9.88343H113.097C114.56 9.88343 115.791 10.9848 115.791 12.4196C115.791 13.9703 114.56 15.1588 113.097 15.1588Z" fill="#2F80ED"/>
<path d="M129.519 6.66602H127.146C126.892 6.66602 126.666 6.8979 126.666 7.15877V24.5066C126.666 24.7674 126.892 24.9993 127.146 24.9993H129.519C129.773 24.9993 129.999 24.7674 129.999 24.5066V7.15877C130.013 6.8979 129.773 6.66602 129.519 6.66602Z" fill="#2F80ED"/>
<path d="M155.3 6.66602H152.842C152.545 6.66602 152.337 6.89571 152.337 7.15412V17.8779H152.308L143.496 8.80502L141.748 6.9962C141.54 6.78087 141.244 6.66602 140.948 6.66602H140.503C140.223 6.66602 140 6.88136 140 7.15412V24.3381C140 24.6108 140.223 24.8262 140.503 24.8262H142.948C143.243 24.8262 143.451 24.5965 143.451 24.3381V13.1836H143.481L143.51 13.2123L154.263 24.6539C154.263 24.6539 154.589 24.9984 154.885 24.9984C155.315 24.9984 155.833 25.0415 155.833 24.5248V7.15412C155.803 6.88136 155.582 6.66602 155.3 6.66602Z" fill="#2F80ED"/>
<path d="M2.8525 6.66602H0.480003C0.225837 6.66602 0 6.8979 0 7.15877V24.5066C0 24.7674 0.225837 24.9993 0.480003 24.9993H2.8525C3.10667 24.9993 3.33249 24.7674 3.33249 24.5066V7.15877C3.34666 6.8979 3.10667 6.66602 2.8525 6.66602Z" fill="#2F80ED"/>
<path d="M28.634 6.66602H26.1757C25.879 6.66602 25.6715 6.89571 25.6715 7.15412V17.8779H25.6423L16.8298 8.80502L15.0815 6.9962C14.874 6.78087 14.5782 6.66602 14.2823 6.66602H13.8373C13.5565 6.66602 13.334 6.88136 13.334 7.15412V24.3381C13.334 24.6108 13.5565 24.8262 13.8373 24.8262H16.2815C16.5773 24.8262 16.7848 24.5965 16.7848 24.3381V13.1836H16.8148L16.844 13.2123L27.5973 24.6539C27.5973 24.6539 27.9232 24.9984 28.219 24.9984C28.649 24.9984 29.1673 25.0415 29.1673 24.5248V7.15412C29.1373 6.88136 28.9157 6.66602 28.634 6.66602Z" fill="#2F80ED"/>
</g>
</g>
<defs>
<clipPath id="clip0_532_2376">
<rect width="155.833" height="25" fill="white"/>
</clipPath>
</defs>
</svg>
